<?xml version="1.0" standalone="no"?>
<!DOCTYPE svg PUBLIC "-//W3C//DTD SVG 20010904//EN"
 "http://www.w3.org/TR/2001/REC-SVG-20010904/DTD/svg10.dtd">
<svg version="1.0" xmlns="http://www.w3.org/2000/svg"
 width="1280.000000pt" height="640.000000pt" viewBox="0 0 1280.000000 640.000000"
 preserveAspectRatio="xMidYMid meet">
<metadata>
Created by potrace 1.15, written by Peter Selinger 2001-2017
</metadata>
<g transform="translate(0.000000,640.000000) scale(0.100000,-0.100000)"
fill="#000000" stroke="none">
<path d="M11984 4715 c27 -154 115 -310 287 -507 147 -169 164 -204 120 -248
-32 -33 -71 -45 -202 -65 -52 -8 -160 -33 -240 -55 -420 -118 -582 -150 -745
-150 -102 1 -216 19 -307 49 -67 23 -85 32 -442 243 -668 393 -983 538 -1364
626 -104 24 -135 26 -306 26 -280 0 -555 -43 -885 -138 -352 -102 -642 -219
-1300 -526 -660 -307 -718 -330 -853 -330 -145 0 -293 47 -511 162 -301 158
-473 238 -561 262 -94 25 -321 66 -485 88 -147 20 -602 16 -775 -6 -379 -48
-738 -137 -1135 -281 -303 -110 -373 -143 -515 -244 -151 -108 -237 -159 -320
-192 -50 -19 -78 -23 -175 -23 -105 0 -122 2 -195 31 -47 18 -109 34 -150 38
-154 14 -278 66 -366 154 -70 70 -100 134 -106 227 -9 125 46 245 171 375 l60
61 -55 -7 c-76 -10 -194 -50 -258 -88 -87 -52 -191 -171 -244 -279 -132 -269
-162 -674 -82 -1075 14 -67 25 -136 25 -153 0 -47 16 -28 41 48 78 237 154
417 217 509 101 148 212 194 319 133 18 -11 57 -23 87 -29 213 -39 436 -157
825 -434 312 -222 334 -236 601 -369 952 -474 1927 -764 2895 -862 308 -31
486 -38 833 -33 469 7 778 39 1224 127 776 155 1384 361 2303 781 194 88 1040
513 1405 706 260 137 267 140 359 152 124 17 212 42 476 136 295 104 385 127
510 128 114 1 178 -15 260 -68 81 -52 94 -72 112 -170 15 -82 15 -103 -1 -279
-17 -196 -20 -362 -7 -451 l7 -50 39 75 c102 197 155 332 193 495 20 88 26
137 26 245 1 165 -17 253 -77 371 -101 198 -484 679 -672 844 l-68 59 7 -39z"/>
</g>
</svg>
